<svg xmlns="http://www.w3.org/2000/svg" xmlns:xlink="http://www.w3.org/1999/xlink" viewBox="0 0 24 24"><defs><style>.d{fill:none;}.e{fill:#ffda7d;}</style><symbol id="a" viewBox="0 0 48 48"><rect class="d" width="48" height="48"/></symbol></defs><path class="e" d="M16.52,13.78a6.1,6.1,0,0,0,2.38-.43s.05,0,.08,0a.1.1,0,0,1,0,.09,7,7,0,0,1-1.06,2.48,6.91,6.91,0,0,1-.84,1,7,7,0,0,1-3.83,2,7.83,7.83,0,0,1-1.37.1,7.36,7.36,0,0,1-2.65-.6,7.22,7.22,0,0,1-1.75-1.09A7.4,7.4,0,0,1,6,15.49a7.11,7.11,0,0,1-.75-1.86A6.53,6.53,0,0,1,5,12.47c0-.24,0-.49,0-.74a7,7,0,0,1,.28-1.82,7.14,7.14,0,0,1,2.24-3.4,7.05,7.05,0,0,1,1.35-.9A6.86,6.86,0,0,1,10.56,5s.08,0,.1,0,0,.06,0,.09a6.07,6.07,0,0,0-.37,1.39,6.29,6.29,0,0,0,.25,2.92,6.59,6.59,0,0,0,1.11,2,6.29,6.29,0,0,0,1.55,1.36,6.14,6.14,0,0,0,1.74.76A5.52,5.52,0,0,0,16.52,13.78Z"/><use width="48" height="48" transform="scale(0.5)" xlink:href="#a"/></svg>