<svg xmlns="http://www.w3.org/2000/svg" xmlns:xlink="http://www.w3.org/1999/xlink" viewBox="0 0 24 24"><defs><style>.n{fill:none;}.o{fill:#dcdcdc;}.p{fill:#aaa;}</style><symbol id="a" viewBox="0 0 48 48"><rect class="n" width="48" height="48"/></symbol></defs><path class="o" d="M14.2,7.79a4.23,4.23,0,0,0-7.85,0,3,3,0,0,0-.6-.06,3.64,3.64,0,1,0,0,7.27H11"/><path class="p" d="M17.94,9.88a3.82,3.82,0,0,0-.68.06,4.72,4.72,0,0,0-8.76,0,3.82,3.82,0,0,0-.68-.06,4.06,4.06,0,0,0,0,8.12H17.94a4.06,4.06,0,0,0,0-8.12Z"/><use width="48" height="48" transform="scale(0.5)" xlink:href="#a"/></svg>