<svg xmlns="http://www.w3.org/2000/svg" xmlns:xlink="http://www.w3.org/1999/xlink" viewBox="0 0 24 24"><defs><style>.x{fill:none;}.y{fill:#dcdcdc;}.z{fill:#73abff;}</style><symbol id="a" viewBox="0 0 48 48"><rect class="x" width="48" height="48"/></symbol></defs><path class="y" d="M17.55,7.8a4.44,4.44,0,0,0-.74.06,5.18,5.18,0,0,0-9.62,0,4.45,4.45,0,1,0-.74,8.84h11.1a4.45,4.45,0,0,0,0-8.9Z"/><path class="z" d="M12.47,14.86l-3,3a.92.92,0,0,0,0,1.3,1,1,0,0,0,.65.27.91.91,0,0,0,.65-.27l3-3a.92.92,0,0,0,0-1.3A.92.92,0,0,0,12.47,14.86Z"/><path class="z" d="M18.85,14.86a.92.92,0,0,0-1.3,0l-3,3a.92.92,0,1,0,1.3,1.3l3-3a.92.92,0,0,0,0-1.3Z"/><path class="z" d="M7.39,14.86l-3,3a.87.87,0,0,0-.26.65.91.91,0,0,0,.26.65,1,1,0,0,0,.65.27.91.91,0,0,0,.65-.27l3-3a.92.92,0,0,0,0-1.3A.92.92,0,0,0,7.39,14.86Z"/><use width="48" height="48" transform="scale(0.5)" xlink:href="#a"/></svg>