<svg xmlns="http://www.w3.org/2000/svg" xmlns:xlink="http://www.w3.org/1999/xlink" viewBox="0 0 24 24"><defs><style>.mm{fill:none;}.nn{fill:#aaa;}.oo{fill:#ffda7d;}</style><symbol id="a" viewBox="0 0 48 48"><rect class="mm" width="48" height="48"/></symbol></defs><path class="nn" d="M17.55,7.1a4.44,4.44,0,0,0-.74.06,5.18,5.18,0,0,0-9.62,0A4.45,4.45,0,1,0,6.45,16h11.1a4.45,4.45,0,0,0,0-8.9Z"/><path class="oo" d="M14.89,14.6a1,1,0,0,0-.82-.46H11.48l1.38-2.75a1,1,0,0,0-.43-1.29,1,1,0,0,0-1.29.43L9.07,14.67a1,1,0,0,0,.86,1.39h2.6l-1.26,2.56a.95.95,0,0,0,.44,1.28.87.87,0,0,0,.42.1,1,1,0,0,0,.86-.54l1.94-3.93A1,1,0,0,0,14.89,14.6Z"/><use width="48" height="48" transform="scale(0.5)" xlink:href="#a"/></svg>