<svg xmlns="http://www.w3.org/2000/svg" xmlns:xlink="http://www.w3.org/1999/xlink" viewBox="0 0 24 24"><defs><style>.pp{fill:none;}.qq{fill:#dcdcdc;}.rr{fill:#73abff;}</style><symbol id="a" viewBox="0 0 48 48"><rect class="pp" width="48" height="48"/></symbol></defs><path class="qq" d="M17.54,7.18a4.53,4.53,0,0,0-.74.07,5.17,5.17,0,0,0-9.6,0,4.53,4.53,0,0,0-.74-.07,4.45,4.45,0,0,0,0,8.9H17.54a4.45,4.45,0,0,0,0-8.9Z"/><path class="rr" d="M18.91,16.59l-1.5-.87,1.5-.86a.69.69,0,0,0,.25-.93.68.68,0,0,0-.93-.24l-1.5.86V12.82a.68.68,0,1,0-1.35,0v1.73l-1.5-.86a.67.67,0,0,0-.92.24.68.68,0,0,0,.24.93l1.51.86-1.51.87a.67.67,0,0,0-.24.92.66.66,0,0,0,.58.34.69.69,0,0,0,.34-.09l1.5-.87v1.74a.68.68,0,0,0,1.35,0V16.89l1.5.87a.72.72,0,0,0,.34.09.67.67,0,0,0,.34-1.26Z"/><path class="rr" d="M11,15.29a.66.66,0,0,0-.92-.25l-1.5.86V14.17a.68.68,0,0,0-1.35,0V15.9L5.77,15a.68.68,0,0,0-.93.25.68.68,0,0,0,.25.92l1.5.86-1.5.87a.68.68,0,0,0-.25.92.68.68,0,0,0,.59.34.72.72,0,0,0,.34-.09l1.5-.86V20a.68.68,0,0,0,1.35,0V18.25l1.5.86a.69.69,0,0,0,.34.09.66.66,0,0,0,.58-.34.67.67,0,0,0-.24-.92l-1.51-.87,1.51-.86A.67.67,0,0,0,11,15.29Z"/><use width="48" height="48" transform="scale(0.5)" xlink:href="#a"/></svg>