<svg xmlns="http://www.w3.org/2000/svg" xmlns:xlink="http://www.w3.org/1999/xlink" viewBox="0 0 24 24"><defs><style>.xx{fill:none;}.yy{fill:#73abff;}</style><symbol id="a" viewBox="0 0 48 48"><rect class="xx" width="48" height="48"/></symbol></defs><path class="yy" d="M9,6.5h8.79a.75.75,0,0,0,0-1.5H9A.75.75,0,0,0,9,6.5Z"/><path class="yy" d="M18.16,14.38H9.36a.75.75,0,0,0,0,1.49h8.8a.75.75,0,0,0,0-1.49Z"/><path class="yy" d="M19.91,11.25H4.09a.75.75,0,0,0,0,1.5H19.91a.75.75,0,0,0,0-1.5Z"/><path class="yy" d="M15,17.5H6.23a.75.75,0,0,0,0,1.5H15a.75.75,0,0,0,0-1.5Z"/><path class="yy" d="M5.84,9.62h8.8a.75.75,0,0,0,0-1.49H5.84a.75.75,0,0,0,0,1.49Z"/><use width="48" height="48" transform="scale(0.5)" xlink:href="#a"/></svg>