<svg xmlns="http://www.w3.org/2000/svg" xmlns:xlink="http://www.w3.org/1999/xlink" viewBox="0 0 24 24">
  <defs>
    <style>
      .a {
        fill: none;
      }
    </style>
    <symbol id="a" viewBox="0 0 48 48">
      <rect class="a" width="48" height="48" />
    </symbol>
  </defs>
  <path
    fill="current"
    d="M5,9.25h7.16a3.48,3.48,0,0,0,6.68,0H20a1,1,0,0,0,0-2H18.84a3.48,3.48,0,0,0-6.68,0H5a1,1,0,0,0,0,2Zm10.5-2.5A1.5,1.5,0,1,1,14,8.25,1.5,1.5,0,0,1,15.5,6.75Z" />
  <path
    fill="current"
    d="M20,15.25H12.84a3.48,3.48,0,0,0-6.68,0H5a1,1,0,0,0,0,2H6.16a3.48,3.48,0,0,0,6.68,0H20a1,1,0,0,0,0-2ZM9.5,17.75a1.5,1.5,0,1,1,1.5-1.5A1.5,1.5,0,0,1,9.5,17.75Z" />
  <use width="48" height="48" transform="translate(0 0) scale(0.5)" xlink:href="#a" />
</svg>