<svg xmlns="http://www.w3.org/2000/svg" xmlns:xlink="http://www.w3.org/1999/xlink" viewBox="0 0 34 34">
  <defs>
    <style>
      .a {
        fill: none;
      }
    </style>
    <symbol id="a" viewBox="0 0 48 48">
      <rect class="a" width="48" height="48" />
    </symbol>
  </defs>
  <path fill="current"
    d="M17,31.17A14.17,14.17,0,1,1,31.17,17,14.19,14.19,0,0,1,17,31.17Zm0-25.5A11.33,11.33,0,1,0,28.33,17,11.34,11.34,0,0,0,17,5.67Z" />
  <path fill="current"
    d="M21.25,24.08a1.4,1.4,0,0,1-1-.41,4.92,4.92,0,0,0-3.25-1,4.91,4.91,0,0,0-3.26,1,1.43,1.43,0,0,1-2,0,1.39,1.39,0,0,1,0-2A7.48,7.48,0,0,1,17,19.83a7.51,7.51,0,0,1,5.25,1.84,1.4,1.4,0,0,1,0,2A1.38,1.38,0,0,1,21.25,24.08Z" />
  <path fill="current"
    d="M14.17,18.42a1.38,1.38,0,0,1-1-.42l-2.84-2.83a1.42,1.42,0,0,1,2-2L15.17,16a1.42,1.42,0,0,1-1,2.42Z" />
  <path fill="current"
    d="M11.33,18.42a1.42,1.42,0,0,1-1-2.42l2.84-2.83a1.4,1.4,0,0,1,2,0,1.42,1.42,0,0,1,0,2L12.34,18A1.42,1.42,0,0,1,11.33,18.42Z" />
  <path fill="current"
    d="M22.67,18.42a1.38,1.38,0,0,1-1-.42l-2.84-2.83a1.42,1.42,0,0,1,2-2L23.67,16a1.42,1.42,0,0,1-1,2.42Z" />
  <path fill="current"
    d="M19.83,18.42a1.42,1.42,0,0,1-1-2.42l2.84-2.83a1.4,1.4,0,0,1,2,0,1.42,1.42,0,0,1,0,2L20.84,18A1.42,1.42,0,0,1,19.83,18.42Z" />
  <use width="48" height="48" transform="translate(0 0) scale(0.71)" xlink:href="#a" />
</svg>