<svg xmlns="http://www.w3.org/2000/svg" xmlns:xlink="http://www.w3.org/1999/xlink" viewBox="0 0 34 34"><defs><style>.a{fill:none;}</style><symbol id="a" viewBox="0 0 48 48"><rect class="a" width="48" height="48"/></symbol></defs><path d="M24.73,5.25A9.66,9.66,0,0,0,22,4.85h-.65a1.31,1.31,0,0,0-1.26,1,3.2,3.2,0,0,1-6.17,0,1.31,1.31,0,0,0-1.25-1H12a9,9,0,0,0-2.45.29A8.76,8.76,0,0,0,3,13.52a1,1,0,0,0,0,.15.66.66,0,0,0,0,.15V27a1.3,1.3,0,0,0,1.3,1.3H9.92a1.3,1.3,0,0,0,1.3-1.3V25.3H22.78V27a1.3,1.3,0,0,0,1.3,1.3h5.67a1.3,1.3,0,0,0,1.3-1.3V13.82s0-.08,0-.11,0-.07,0-.11h0A8.87,8.87,0,0,0,24.73,5.25ZM9.92,14.52a1.3,1.3,0,0,0-1.3,1.3V25.7H5.55V13.82a.66.66,0,0,0,0-.15,1,1,0,0,0,0-.15,6.17,6.17,0,0,1,4.69-5.8,6.55,6.55,0,0,1,1.54-.2,5.83,5.83,0,0,0,3.92,3.12V22.7H11.22V15.82A1.3,1.3,0,0,0,9.92,14.52Zm18.55-.81s0,.07,0,.11V25.7H25.38V15.82a1.3,1.3,0,0,0-2.6,0V22.7H18.3V10.64a5.83,5.83,0,0,0,4-3.18,6.37,6.37,0,0,1,6.19,6.14h0S28.47,13.67,28.47,13.71Z"/><use width="48" height="48" transform="translate(0 0) scale(0.71)" xlink:href="#a"/></svg>