<svg xmlns="http://www.w3.org/2000/svg" xmlns:xlink="http://www.w3.org/1999/xlink" viewBox="0 0 34 34"><defs><style>.a{fill:none;}</style><symbol id="a" viewBox="0 0 48 48"><rect class="a" width="48" height="48"/></symbol></defs><path d="M21.24,3a1.28,1.28,0,0,0-.79.27L17,5.86,13.54,3.22A1.24,1.24,0,0,0,12.75,3,9.82,9.82,0,0,0,3,12.75V25.5a1.3,1.3,0,0,0,1.3,1.3H7.7v2.95A1.3,1.3,0,0,0,9,31.05H25a1.3,1.3,0,0,0,1.3-1.3V26.8h3.45a1.3,1.3,0,0,0,1.3-1.3V12.75A9.82,9.82,0,0,0,21.24,3Zm.43,2.61a7.26,7.26,0,0,1,2,.42L21.4,8.39l-3.1.89V8.14Zm-6,2.58V9.27l-3-.86L10.55,5.9a7.48,7.48,0,0,1,1.78-.34ZM10.3,23.8h1.2a1.3,1.3,0,0,0,0-2.6H10.3V15a1.3,1.3,0,0,0-2.6,0v9.2H5.55V12.75A7.16,7.16,0,0,1,8.22,7.17l2.72,3.22a1.29,1.29,0,0,0,.63.41L15.7,12V28.45H10.3ZM28.45,17v7.2H26.3V15a1.3,1.3,0,0,0-2.6,0v6.2H22.5a1.3,1.3,0,0,0,0,2.6h1.2v4.65H18.3V12l4.15-1.18a1.44,1.44,0,0,0,.58-.35l3-3.1a7.18,7.18,0,0,1,2.45,5.4Z"/><use width="48" height="48" transform="translate(0 0) scale(0.71)" xlink:href="#a"/></svg>