<svg xmlns="http://www.w3.org/2000/svg" xmlns:xlink="http://www.w3.org/1999/xlink" viewBox="0 0 34 34">
  <defs>
    <style>
      .a {
        fill: none;
      }
    </style>
    <symbol id="a" viewBox="0 0 48 48">
      <rect class="a" width="48" height="48" />
    </symbol>
  </defs>
  <path fill="current"
    d="M27.37,12.05l-.23-.2C26.93,11.72,22.05,8.5,17,8.5S7.07,11.72,6.86,11.85l-.23.2c-2,.31-4.72,1.56-4.72,4.88s2.67,4.56,4.7,4.87a13.1,13.1,0,0,0,20.78,0c2-.31,4.7-1.56,4.7-4.87S29.4,12.36,27.37,12.05ZM6.23,19.55a2.66,2.66,0,0,1,0-5.24Zm15.45,1.2H12.32a.7.7,0,0,1-.7-.7.7.7,0,0,1,.7-.71h9.36a.7.7,0,0,1,.7.71A.7.7,0,0,1,21.68,20.75Zm0-3.89H12.32a.71.71,0,0,1,0-1.42h9.36a.71.71,0,0,1,0,1.42Zm6.09,2.69V14.31a2.66,2.66,0,0,1,0,5.24Z" />
  <use width="48" height="48" transform="translate(0 0) scale(0.71)" xlink:href="#a" />
</svg>