<svg xmlns="http://www.w3.org/2000/svg" xmlns:xlink="http://www.w3.org/1999/xlink" viewBox="0 0 34 34"><defs><style>.a{fill:none;}</style><symbol id="a" viewBox="0 0 48 48"><rect class="a" width="48" height="48"/></symbol></defs><path d="M21.24,3a1.28,1.28,0,0,0-.79.27L17,5.86,13.54,3.22A1.24,1.24,0,0,0,12.75,3,9.82,9.82,0,0,0,3,12.75V25.5a1.3,1.3,0,0,0,1.3,1.3H8.62v2.95a1.3,1.3,0,0,0,1.3,1.3H24.08a1.3,1.3,0,0,0,1.3-1.3V26.8h4.37a1.3,1.3,0,0,0,1.3-1.3V12.75A9.82,9.82,0,0,0,21.24,3ZM9.92,11.45a1.3,1.3,0,0,0-1.3,1.3V24.2H5.55V12.75a7.21,7.21,0,0,1,6.78-7.19L15.7,8.14V28.45H11.22V12.75A1.3,1.3,0,0,0,9.92,11.45ZM28.45,17v7.2H25.38V12.75a1.3,1.3,0,1,0-2.6,0v15.7H18.3V8.14l3.37-2.58a7.21,7.21,0,0,1,6.78,7.19Z"/><use width="48" height="48" transform="translate(0 0) scale(0.71)" xlink:href="#a"/></svg>