<svg xmlns="http://www.w3.org/2000/svg" xmlns:xlink="http://www.w3.org/1999/xlink" viewBox="0 0 34 34"><defs><style>.a{fill:none;}</style><symbol id="a" viewBox="0 0 48 48"><rect class="a" width="48" height="48"/></symbol></defs><path d="M17,2.83A14.17,14.17,0,1,0,31.17,17,14.19,14.19,0,0,0,17,2.83Zm0,25.5A11.33,11.33,0,1,1,28.33,17,11.34,11.34,0,0,1,17,28.33Z"/><path d="M13.17,18a1.38,1.38,0,0,0,1,.42,1.42,1.42,0,0,0,1-2.42l-.42-.42.42-.41a1.42,1.42,0,0,0,0-2,1.4,1.4,0,0,0-2,0l-.42.41-.41-.41a1.42,1.42,0,0,0-2,2l.42.41-.42.42a1.42,1.42,0,1,0,2,2l.41-.41Z"/><path d="M23.67,13.17a1.4,1.4,0,0,0-2,0l-.42.41-.41-.41a1.42,1.42,0,0,0-2,2l.42.41-.42.42a1.42,1.42,0,1,0,2,2l.41-.41.42.41a1.38,1.38,0,0,0,1,.42,1.42,1.42,0,0,0,1-2.42l-.42-.42.42-.41A1.42,1.42,0,0,0,23.67,13.17Z"/><path d="M19.83,21.37H14.17a1.3,1.3,0,0,0,0,2.6h5.66a1.3,1.3,0,1,0,0-2.6Z"/><use width="48" height="48" transform="translate(0 0) scale(0.71)" xlink:href="#a"/></svg>