<svg xmlns="http://www.w3.org/2000/svg" xmlns:xlink="http://www.w3.org/1999/xlink" viewBox="0 0 34 34"><defs><style>.a{fill:none;}</style><symbol id="a" viewBox="0 0 48 48"><rect class="a" width="48" height="48"/></symbol></defs><path d="M24.08,31a1.27,1.27,0,0,1-1.27-1.27V16.25a1.27,1.27,0,0,1,2.54,0V29.73A1.27,1.27,0,0,1,24.08,31Z"/><path d="M24.08,13.51a1.27,1.27,0,0,1-1.27-1.27v-8a1.27,1.27,0,1,1,2.54,0v8A1.27,1.27,0,0,1,24.08,13.51Z"/><path d="M10.2,31a1.27,1.27,0,0,1-1.27-1.27V17a1.28,1.28,0,0,1,2.55,0V29.73A1.28,1.28,0,0,1,10.2,31Z"/><path d="M24.08,17.52a5.43,5.43,0,0,1-5.77-5.44V4.27a1.28,1.28,0,0,1,2.55,0v7.81A2.9,2.9,0,0,0,24.08,15a2.91,2.91,0,0,0,3.22-2.9V4.27a1.27,1.27,0,1,1,2.54,0v7.81A5.42,5.42,0,0,1,24.08,17.52Z"/><path d="M10.2,18.27a6,6,0,0,1-6-6C4.16,8.51,6.08,3,10.2,3s6.05,5.51,6.05,9.23A6,6,0,0,1,10.2,18.27Zm0-12.72c-2.13,0-3.5,4-3.5,6.68a3.5,3.5,0,0,0,7,0C13.7,9.5,12.34,5.55,10.2,5.55Z"/><use width="48" height="48" transform="translate(0 0) scale(0.71)" xlink:href="#a"/></svg>