<svg xmlns="http://www.w3.org/2000/svg" xmlns:xlink="http://www.w3.org/1999/xlink" viewBox="0 0 34 34"><defs><style>.a{fill:none;}</style><symbol id="a" viewBox="0 0 48 48"><rect class="a" width="48" height="48"/></symbol></defs><path d="M22.7,8.66a.86.86,0,0,0-.16,0c0-.06,0-.11,0-.17a5.55,5.55,0,1,0-11.1,0c0,.05,0,.1,0,.14A9.46,9.46,0,0,0,3,17.81H3v8a1.3,1.3,0,0,0,1.3,1.3H8.62v2.68a1.3,1.3,0,0,0,1.3,1.3H24.08a1.3,1.3,0,0,0,1.3-1.3V27.07h4.37a1.3,1.3,0,0,0,1.3-1.3V17.82h0A9.49,9.49,0,0,0,22.7,8.66ZM17,5.55A3,3,0,0,1,20,8.5c0,1-1.56,2.73-2.95,4-1.39-1.24-2.95-3-2.95-4A3,3,0,0,1,17,5.55ZM28.45,24.47H25.38V17.82a1.3,1.3,0,0,0-2.6,0V28.45H11.22V17.82a1.3,1.3,0,0,0-2.6,0v6.65H5.55V17.82a6.87,6.87,0,0,1,6.33-6.61,1.26,1.26,0,0,0,.44-.14,17.87,17.87,0,0,0,3.88,4.12,1.28,1.28,0,0,0,1.6,0A17.65,17.65,0,0,0,21.74,11a1.28,1.28,0,0,0,.6.28,6.89,6.89,0,0,1,6.11,6.58Z"/><path d="M19.12,22.78H14.88a1.3,1.3,0,0,0,0,2.6h4.24a1.3,1.3,0,1,0,0-2.6Z"/><use width="48" height="48" transform="translate(0 0) scale(0.71)" xlink:href="#a"/></svg>