<svg xmlns="http://www.w3.org/2000/svg" xmlns:xlink="http://www.w3.org/1999/xlink" viewBox="0 0 192 192"><defs><style>.a{fill:none;}.b{fill:#ffd359;}.c{fill:#fff;}</style><symbol id="a" viewBox="0 0 192 192"><rect class="a" width="192" height="192"/></symbol></defs><path class="b" d="M96,183.92A87.92,87.92,0,1,0,8.08,96,87.92,87.92,0,0,0,96,183.92Z"/><path d="M145.46,83.64H46.54a4.13,4.13,0,0,1,0-8.25h98.92a4.13,4.13,0,0,1,0,8.25Z"/><path class="c" d="M112.48,95.47a16,16,0,1,0-16-16A16,16,0,0,0,112.48,95.47Z"/><path d="M112.49,99.59a20.08,20.08,0,1,1,20.07-20.08A20.11,20.11,0,0,1,112.49,99.59Zm0-31.9a11.83,11.83,0,1,0,11.82,11.82A11.83,11.83,0,0,0,112.49,67.69Z"/><path d="M145.46,122.1H46.54a4.12,4.12,0,1,1,0-8.24h98.92a4.12,4.12,0,0,1,0,8.24Z"/><path class="c" d="M91.8,118a12.29,12.29,0,1,0-12.29,12.28A12.28,12.28,0,0,0,91.8,118Z"/><path d="M79.51,134.38A16.4,16.4,0,1,1,95.92,118,16.42,16.42,0,0,1,79.51,134.38Zm0-24.56A8.16,8.16,0,1,0,87.68,118,8.17,8.17,0,0,0,79.51,109.82Z"/><use width="192" height="192" xlink:href="#a"/></svg>