<svg xmlns="http://www.w3.org/2000/svg" xmlns:xlink="http://www.w3.org/1999/xlink" viewBox="0 0 34 34"><defs><style>.a{fill:none;}</style><symbol id="a" viewBox="0 0 48 48"><rect class="a" width="48" height="48"/></symbol></defs><path d="M21.25,3a1.31,1.31,0,0,0-1.12.63,3.64,3.64,0,0,1-6.26,0A1.31,1.31,0,0,0,12.75,3,9.82,9.82,0,0,0,3,12.75V25.5a1.3,1.3,0,0,0,1.3,1.3H8.62v2.95a1.3,1.3,0,0,0,1.3,1.3H24.08a1.3,1.3,0,0,0,1.3-1.3V26.8h4.37a1.3,1.3,0,0,0,1.3-1.3V12.75A9.82,9.82,0,0,0,21.25,3ZM28.45,17v7.2H25.38V12.75a1.3,1.3,0,1,0-2.6,0v15.7H11.22V12.75a1.3,1.3,0,0,0-2.6,0V24.2H5.55V12.75a7.21,7.21,0,0,1,6.54-7.17,6.25,6.25,0,0,0,9.82,0,7.21,7.21,0,0,1,6.54,7.17Z"/><use width="48" height="48" transform="translate(0 0) scale(0.71)" xlink:href="#a"/></svg>