<svg xmlns="http://www.w3.org/2000/svg" xmlns:xlink="http://www.w3.org/1999/xlink" viewBox="0 0 30 30">
  <defs>
    <style>
      .a {
        fill: none;
      }
    </style>
    <symbol id="a" viewBox="0 0 48 48">
      <rect class="a" width="48" height="48" />
    </symbol>
  </defs>
  <path fill="current"
    d="M15,8.75A6.25,6.25,0,1,0,21.25,15,6.25,6.25,0,0,0,15,8.75Zm0,10A3.75,3.75,0,1,1,18.75,15,3.75,3.75,0,0,1,15,18.75Z" />
  <path fill="current" d="M15,6.25A1.25,1.25,0,0,0,16.25,5V3.75a1.25,1.25,0,0,0-2.5,0V5A1.25,1.25,0,0,0,15,6.25Z" />
  <path fill="current" d="M15,23.75A1.25,1.25,0,0,0,13.75,25v1.25a1.25,1.25,0,0,0,2.5,0V25A1.25,1.25,0,0,0,15,23.75Z" />
  <path fill="current"
    d="M7,8.81a1.25,1.25,0,0,0,.89.37,1.21,1.21,0,0,0,.88-.37,1.24,1.24,0,0,0,0-1.76l-.88-.89A1.25,1.25,0,0,0,6.16,7.93Z" />
  <path fill="current" d="M23,21.19A1.25,1.25,0,0,0,21.19,23l.88.89a1.28,1.28,0,0,0,.89.36,1.25,1.25,0,0,0,.88-2.13Z" />
  <path fill="current" d="M6.25,15A1.25,1.25,0,0,0,5,13.75H3.75a1.25,1.25,0,0,0,0,2.5H5A1.25,1.25,0,0,0,6.25,15Z" />
  <path fill="current" d="M26.25,13.75H25a1.25,1.25,0,0,0,0,2.5h1.25a1.25,1.25,0,0,0,0-2.5Z" />
  <path fill="current"
    d="M7,21.19l-.88.88A1.25,1.25,0,0,0,7,24.2a1.28,1.28,0,0,0,.89-.36L8.81,23A1.25,1.25,0,1,0,7,21.19Z" />
  <path fill="current"
    d="M22.07,9.18A1.25,1.25,0,0,0,23,8.81l.88-.88a1.25,1.25,0,0,0-1.77-1.77l-.88.89a1.24,1.24,0,0,0,0,1.76A1.21,1.21,0,0,0,22.07,9.18Z" />
  <use width="48" height="48" transform="translate(0 0) scale(0.62)" xlink:href="#a" />
</svg>