<svg xmlns="http://www.w3.org/2000/svg" xmlns:xlink="http://www.w3.org/1999/xlink" viewBox="0 0 34 34"><defs><style>.a{fill:none;}</style><symbol id="a" viewBox="0 0 48 48"><rect class="a" width="48" height="48"/></symbol></defs><path d="M27.5,5.7H6A1.3,1.3,0,0,0,4.7,7v7.5A1.3,1.3,0,0,0,6,15.8H7.39V28.5a1.3,1.3,0,0,0,1.3,1.3h7.16a1.3,1.3,0,0,0,1.3-1.3V15.8H27.5a1.3,1.3,0,0,0,1.3-1.3V7A1.3,1.3,0,0,0,27.5,5.7ZM14.55,27.2H10V24.8h4.56Zm0-5H10V15.8h4.56Zm11.65-9H7.3V8.3H26.2Z"/><use width="48" height="48" transform="translate(0 0) scale(0.71)" xlink:href="#a"/></svg>