<svg xmlns="http://www.w3.org/2000/svg" xmlns:xlink="http://www.w3.org/1999/xlink" viewBox="0 0 34 34"><defs><style>.a{fill:none;}</style><symbol id="a" viewBox="0 0 48 48"><rect class="a" width="48" height="48"/></symbol></defs><path d="M17,29.7a9.21,9.21,0,0,1-9.2-9.2c0-6.9,8-15.46,8.33-15.82a1.23,1.23,0,0,1,1.74,0C18.21,5,26.2,13.6,26.2,20.5A9.21,9.21,0,0,1,17,29.7ZM17,7.31c-2,2.36-6.8,8.47-6.8,13.19a6.8,6.8,0,0,0,13.6,0C23.8,15.78,19,9.67,17,7.31Z"/><use width="48" height="48" transform="translate(0 0) scale(0.71)" xlink:href="#a"/></svg>