<svg xmlns="http://www.w3.org/2000/svg" xmlns:xlink="http://www.w3.org/1999/xlink" viewBox="0 0 34 34"><defs><style>.a{fill:none;}</style><symbol id="a" viewBox="0 0 48 48"><rect class="a" width="48" height="48"/></symbol></defs><path class="a" d="M11.76,15H22.24A40.64,40.64,0,0,0,17,7.31,40.64,40.64,0,0,0,11.76,15Z"/><path d="M17.87,4.68a1.23,1.23,0,0,0-1.74,0C15.79,5,7.8,13.6,7.8,20.5a9.2,9.2,0,0,0,18.4,0C26.2,13.6,18.21,5,17.87,4.68ZM17,7.31A40.64,40.64,0,0,1,22.24,15H11.76A40.64,40.64,0,0,1,17,7.31Z"/><use width="48" height="48" transform="translate(0 0) scale(0.71)" xlink:href="#a"/></svg>