<svg xmlns="http://www.w3.org/2000/svg" xmlns:xlink="http://www.w3.org/1999/xlink" viewBox="0 0 34 34"><defs><style>.a{fill:none;}</style><symbol id="a" viewBox="0 0 48 48"><rect class="a" width="48" height="48"/></symbol></defs><path class="a" d="M17,7.5c-2.08,2.46-6.67,8.41-6.67,13a6.67,6.67,0,0,0,13.34,0C23.67,15.91,19.08,10,17,7.5Z"/><path d="M17,4.19a1.32,1.32,0,0,0-1,.4c-.35.36-8.37,9-8.37,15.91a9.33,9.33,0,0,0,18.66,0c0-6.95-8-15.55-8.37-15.91A1.32,1.32,0,0,0,17,4.19Zm0,23a6.67,6.67,0,0,1-6.67-6.67c0-4.59,4.59-10.54,6.67-13,2.08,2.46,6.67,8.41,6.67,13A6.67,6.67,0,0,1,17,27.17Z"/><use width="48" height="48" transform="translate(0 0) scale(0.71)" xlink:href="#a"/></svg>