<svg xmlns="http://www.w3.org/2000/svg" xmlns:xlink="http://www.w3.org/1999/xlink" viewBox="0 0 34 34"><defs><style>.a{fill:none;}</style><symbol id="a" viewBox="0 0 48 48"><rect class="a" width="48" height="48"/></symbol></defs><path class="a" d="M20.33,12l0-.06-.56-.82L19.66,11l-.52-.73L19,10.05c-.15-.21-.31-.41-.45-.61l-.19-.24L18,8.72l-.27-.34c-.08-.11-.17-.21-.25-.31s-.33-.39-.47-.57c-.14.18-.3.37-.47.57l-.25.31L16,8.72c-.12.15-.25.31-.37.48l-.2.24c-.14.2-.3.4-.45.61l-.13.18-.52.73-.08.12c-.19.27-.37.54-.56.83l0,0c-.4.62-.79,1.26-1.16,1.93h9C21.12,13.22,20.73,12.57,20.33,12Z"/><path d="M17,4.19a1.32,1.32,0,0,0-1,.4c-.35.36-8.37,9-8.37,15.91a9.33,9.33,0,0,0,18.66,0c0-6.95-8-15.54-8.37-15.91A1.32,1.32,0,0,0,17,4.19ZM13.67,12l0,0c.19-.29.37-.56.56-.83l.08-.12.52-.73.13-.18c.15-.21.31-.41.45-.61l.2-.24c.12-.17.25-.33.37-.48l.27-.34.25-.31c.17-.2.33-.39.47-.57.14.18.3.37.47.57s.17.2.25.31l.27.34.38.48.19.24c.14.2.3.4.45.61l.13.18.52.73.08.12.56.82,0,.06c.4.61.79,1.26,1.16,1.92h-9C12.88,13.21,13.27,12.57,13.67,12Z"/><use width="48" height="48" transform="translate(0 0) scale(0.71)" xlink:href="#a"/></svg>