<svg xmlns="http://www.w3.org/2000/svg" xmlns:xlink="http://www.w3.org/1999/xlink" viewBox="0 0 34 34"><defs><style>.a{fill:none;}</style><symbol id="a" viewBox="0 0 48 48"><rect class="a" width="48" height="48"/></symbol></defs><path d="M17.87,4.68a1.23,1.23,0,0,0-1.74,0C15.79,5,7.8,13.6,7.8,20.5a9.2,9.2,0,0,0,18.4,0C26.2,13.6,18.21,5,17.87,4.68ZM17,27.3a6.81,6.81,0,0,1-6.8-6.8C10.2,15.78,15,9.67,17,7.31c2,2.36,6.8,8.47,6.8,13.19A6.81,6.81,0,0,1,17,27.3Z"/><path class="a" d="M24.66,18C23.13,12,17,5.5,17,5.5S10.87,12,9.34,18Z"/><path d="M9,20.5a8,8,0,0,0,16,0,10,10,0,0,0-.34-2.5H9.34A10,10,0,0,0,9,20.5Z"/><use width="48" height="48" transform="translate(0 0) scale(0.71)" xlink:href="#a"/></svg>