<svg xmlns="http://www.w3.org/2000/svg" xmlns:xlink="http://www.w3.org/1999/xlink" viewBox="0 0 34 34"><defs><style>.a{fill:none;}</style><symbol id="a" viewBox="0 0 48 48"><rect class="a" width="48" height="48"/></symbol></defs><path d="M21.25,3a1.3,1.3,0,0,0-1.12.63,3.64,3.64,0,0,1-6.26,0A1.3,1.3,0,0,0,12.76,3,9.82,9.82,0,0,0,3,12.75V17a1.3,1.3,0,0,0,1.3,1.3H8.62V29.75a1.3,1.3,0,0,0,1.3,1.3H24.08a1.3,1.3,0,0,0,1.3-1.3V18.3h4.37a1.3,1.3,0,0,0,1.3-1.3V12.75A9.82,9.82,0,0,0,21.25,3Zm7.2,12.75H25.38V12.75a1.3,1.3,0,1,0-2.6,0v15.7H11.22V12.75a1.3,1.3,0,0,0-2.6,0V15.7H5.55V12.75A7.21,7.21,0,0,1,12.1,5.58,6.17,6.17,0,0,0,17,8h0a6.2,6.2,0,0,0,4.91-2.38,7.21,7.21,0,0,1,6.54,7.17Z"/><use width="48" height="48" transform="translate(0 0) scale(0.71)" xlink:href="#a"/></svg>