<svg xmlns="http://www.w3.org/2000/svg" xmlns:xlink="http://www.w3.org/1999/xlink" viewBox="0 0 34 34"><defs><style>.a{fill:none;}</style><symbol id="a" viewBox="0 0 48 48"><rect class="a" width="48" height="48"/></symbol></defs><path d="M26.72,5.11a1.33,1.33,0,0,0-.64-.89A9.84,9.84,0,0,0,21.25,3a1.3,1.3,0,0,0-1.12.63,3.64,3.64,0,0,1-6.26,0A1.3,1.3,0,0,0,12.76,3,9.78,9.78,0,0,0,7.85,4.26,1.33,1.33,0,0,0,7.2,5.39V29.75a1.3,1.3,0,0,0,1.3,1.3h17a1.3,1.3,0,0,0,1.3-1.3V5.67a2,2,0,0,0,0-.25ZM24.2,28.45H9.8V6.18a7.23,7.23,0,0,1,2.3-.6A6.17,6.17,0,0,0,17,8h0a6.2,6.2,0,0,0,4.91-2.38,7.25,7.25,0,0,1,2.29.6Z"/><use width="48" height="48" transform="translate(0 0) scale(0.71)" xlink:href="#a"/></svg>