<svg xmlns="http://www.w3.org/2000/svg" xmlns:xlink="http://www.w3.org/1999/xlink" viewBox="0 0 34 34">
  <defs>
    <style>
      .a {
        fill: none;
      }
    </style>
    <symbol id="a" viewBox="0 0 48 48">
      <rect class="a" width="48" height="48" />
    </symbol>
  </defs>
  <path fill="current"
    d="M17,15.58a7.09,7.09,0,0,0-7.08,7.09,1.42,1.42,0,0,0,2.83,0,4.25,4.25,0,0,1,8.5,0,1.42,1.42,0,0,0,2.83,0A7.09,7.09,0,0,0,17,15.58Z" />
  <path fill="current"
    d="M17,12.75a1.42,1.42,0,0,0,1.42-1.42V9.92a1.42,1.42,0,0,0-2.84,0v1.41A1.42,1.42,0,0,0,17,12.75Z" />
  <path fill="current" d="M10,13.65l-1-1a1.42,1.42,0,0,0-2,2l1,1a1.42,1.42,0,0,0,2-2Z" />
  <path fill="current" d="M5.67,21.25H4.25a1.42,1.42,0,1,0,0,2.83H5.67a1.42,1.42,0,0,0,0-2.83Z" />
  <path fill="current" d="M29.75,21.25H28.33a1.42,1.42,0,0,0,0,2.83h1.42a1.42,1.42,0,1,0,0-2.83Z" />
  <path fill="current" d="M27,12.65a1.43,1.43,0,0,0-2,0l-1,1a1.42,1.42,0,1,0,2,2l1-1A1.42,1.42,0,0,0,27,12.65Z" />
  <use width="48" height="48" transform="translate(0 0) scale(0.71)" xlink:href="#a" />
</svg>