<svg xmlns="http://www.w3.org/2000/svg" xmlns:xlink="http://www.w3.org/1999/xlink" viewBox="0 0 34 34">
  <defs>
    <style>
      .a {
        fill: none;
      }
    </style>
    <symbol id="a" viewBox="0 0 48 48">
      <rect class="a" width="48" height="48" />
    </symbol>
  </defs>
  <path fill="current"
    d="M23.09,5.34a5.21,5.21,0,0,0-5,3.7,1.17,1.17,0,0,0,2.23.68,2.92,2.92,0,1,1,2.79,3.78H6.83a1.17,1.17,0,0,0,0,2.33H23.09a5.25,5.25,0,0,0,0-10.49Z" />
  <path fill="current"
    d="M22.21,18.17H6.83a1.17,1.17,0,0,0,0,2.33H22.21a2.92,2.92,0,1,1-2.79,3.78,1.17,1.17,0,0,0-2.23.68,5.25,5.25,0,1,0,5-6.79Z" />
  <use width="48" height="48" transform="translate(0 0) scale(0.71)" xlink:href="#a" />
</svg>