<svg xmlns="http://www.w3.org/2000/svg" xmlns:xlink="http://www.w3.org/1999/xlink" viewBox="0 0 34 34"><defs><style>.a{fill:none;}</style><symbol id="a" viewBox="0 0 48 48"><rect class="a" width="48" height="48"/></symbol></defs><path d="M17,31.17A14.17,14.17,0,1,1,31.17,17,14.19,14.19,0,0,1,17,31.17Zm0-25.5A11.33,11.33,0,1,0,28.33,17,11.34,11.34,0,0,0,17,5.67Z"/><path d="M17,24.08a7.5,7.5,0,0,1-5.25-1.83,1.4,1.4,0,0,1,0-2,1.42,1.42,0,0,1,2,0,4.88,4.88,0,0,0,3.26,1,4.88,4.88,0,0,0,3.26-1,1.44,1.44,0,0,1,2,0,1.4,1.4,0,0,1,0,2A7.53,7.53,0,0,1,17,24.08Z"/><path d="M12.18,18A5,5,0,0,1,9,16.67a1.42,1.42,0,1,1,1.82-2.17c1.24,1.05,1.76.69,2.31.11a1.42,1.42,0,1,1,2.06,1.95A4.13,4.13,0,0,1,12.18,18Z"/><path d="M22.09,18a5,5,0,0,1-3.17-1.33,1.42,1.42,0,0,1,1.82-2.17c1.25,1.05,1.77.69,2.31.11a1.42,1.42,0,1,1,2.06,1.95A4.12,4.12,0,0,1,22.09,18Z"/><use width="48" height="48" transform="translate(0 0) scale(0.71)" xlink:href="#a"/></svg>