<svg xmlns="http://www.w3.org/2000/svg" xmlns:xlink="http://www.w3.org/1999/xlink" viewBox="0 0 34 34"><defs><style>.a{fill:none;}</style><symbol id="a" viewBox="0 0 48 48"><rect class="a" width="48" height="48"/></symbol></defs><path d="M15.17,14.58a1.47,1.47,0,0,0-2,0,1.42,1.42,0,0,0-.38,1.29.81.81,0,0,0,.08.25,1.05,1.05,0,0,0,.13.26l.17.21a1.57,1.57,0,0,0,.47.3,1.24,1.24,0,0,0,.54.11,1.23,1.23,0,0,0,.53-.11,1.45,1.45,0,0,0,.47-.3l.17-.21a1.05,1.05,0,0,0,.13-.26,1.25,1.25,0,0,0,.09-.25c0-.1,0-.2,0-.29A1.45,1.45,0,0,0,15.17,14.58Z"/><path d="M20.84,14.58a1.45,1.45,0,0,0-1.29-.38.81.81,0,0,0-.25.08,1.05,1.05,0,0,0-.26.13l-.21.17a1.65,1.65,0,0,0-.3.46,1.43,1.43,0,0,0,.3,1.55,1.42,1.42,0,0,0,2.42-1,1.45,1.45,0,0,0-.11-.54A1.65,1.65,0,0,0,20.84,14.58Z"/><path d="M17.54,18.53a1.5,1.5,0,0,0-1.55.3,1.56,1.56,0,0,0-.29.46,1.46,1.46,0,0,0-.12.54,1.48,1.48,0,0,0,.41,1l.22.17a1,1,0,0,0,.25.13.84.84,0,0,0,.27.08l.27,0a1.4,1.4,0,0,0,1.42-1.42,1.5,1.5,0,0,0-.41-1A1.57,1.57,0,0,0,17.54,18.53Z"/><path d="M29.75,15.58H26.8a9.89,9.89,0,0,0-1.87-4.51L27,9a1.42,1.42,0,0,0-2-2L22.93,9.07A9.89,9.89,0,0,0,18.42,7.2V4.25a1.42,1.42,0,0,0-2.84,0v3a9.89,9.89,0,0,0-4.51,1.87L9,7A1.42,1.42,0,0,0,7,9l2.09,2.08A9.89,9.89,0,0,0,7.2,15.58H4.25a1.42,1.42,0,1,0,0,2.84h3a9.89,9.89,0,0,0,1.87,4.51L7,25a1.42,1.42,0,0,0,1,2.42A1.45,1.45,0,0,0,9,27l2.08-2.09a9.89,9.89,0,0,0,4.51,1.87v2.95a1.42,1.42,0,0,0,2.84,0V26.8a9.89,9.89,0,0,0,4.51-1.87L25,27a1.44,1.44,0,0,0,2,0,1.43,1.43,0,0,0,0-2l-2.09-2.08a9.89,9.89,0,0,0,1.87-4.51h2.95a1.42,1.42,0,1,0,0-2.84ZM17,24.08A7.08,7.08,0,1,1,24.08,17,7.08,7.08,0,0,1,17,24.08Z"/><use width="48" height="48" transform="translate(0 0) scale(0.71)" xlink:href="#a"/></svg>