<svg xmlns="http://www.w3.org/2000/svg" xmlns:xlink="http://www.w3.org/1999/xlink" viewBox="0 0 24 24"><defs><style>.a{fill:none;}</style><symbol id="a" viewBox="0 0 48 48"><rect class="a" width="48" height="48"/></symbol></defs><path d="M12,2A10,10,0,1,0,22,12,10,10,0,0,0,12,2Zm3.71,12.29a1,1,0,0,1,0,1.42,1,1,0,0,1-1.42,0L12,13.41l-2.29,2.3a1,1,0,0,1-1.42,0,1,1,0,0,1,0-1.42L10.59,12,8.29,9.71A1,1,0,0,1,9.71,8.29L12,10.59l2.29-2.3a1,1,0,0,1,1.42,1.42L13.41,12Z"/><use width="48" height="48" transform="translate(0 0) scale(0.5)" xlink:href="#a"/></svg>