<svg xmlns="http://www.w3.org/2000/svg" xmlns:xlink="http://www.w3.org/1999/xlink" viewBox="0 0 30 30"><defs><style>.a{fill:none;}</style><symbol id="a" viewBox="0 0 48 48"><rect class="a" width="48" height="48"/></symbol></defs><path d="M15,8.75a4.38,4.38,0,1,0,4.38,4.38A4.38,4.38,0,0,0,15,8.75ZM15,15a1.88,1.88,0,1,1,1.88-1.87A1.87,1.87,0,0,1,15,15Z"/><path d="M15,2.5A10.64,10.64,0,0,0,4.38,13.13c0,7.45,9.52,13.89,9.93,14.16a1.24,1.24,0,0,0,1.38,0c.41-.27,9.94-6.71,9.94-14.16A10.64,10.64,0,0,0,15,2.5Zm0,22.21c-2.08-1.55-8.12-6.49-8.12-11.58a8.13,8.13,0,1,1,16.25,0C23.13,18.22,17.08,23.16,15,24.71Z"/><use width="48" height="48" transform="translate(0 0) scale(0.62)" xlink:href="#a"/></svg>