<svg xmlns="http://www.w3.org/2000/svg" xmlns:xlink="http://www.w3.org/1999/xlink" viewBox="0 0 34 34"><defs><style>.a{fill:none;}</style><symbol id="a" viewBox="0 0 48 48"><rect class="a" width="48" height="48"/></symbol></defs><path d="M25.64,8.76a6.65,6.65,0,0,0-1.78-.18A7.16,7.16,0,0,0,12.54,5a7.06,7.06,0,0,0-2.4,3.55,6.69,6.69,0,0,0-1.78.18A7.14,7.14,0,0,0,4.22,20,7.07,7.07,0,0,0,5.66,21.4a7.3,7.3,0,0,0,0,3.8A7.15,7.15,0,0,0,17,29h0a7.19,7.19,0,0,0,4.46,1.55,7.83,7.83,0,0,0,1.66-.19,7.15,7.15,0,0,0,5.26-5.14,7.3,7.3,0,0,0-.05-3.8,7.09,7.09,0,0,0,2.7-7A7.19,7.19,0,0,0,25.64,8.76Zm1.86,9.5A4.31,4.31,0,0,1,26,19.56a1.41,1.41,0,0,0-.63,1.9,4.3,4.3,0,0,1,.31,3,4.25,4.25,0,0,1-3.15,3.08,4.37,4.37,0,0,1-3.71-.82,4.32,4.32,0,0,1-.68-.67,1.42,1.42,0,0,0-2.2,0,4.71,4.71,0,0,1-.67.67,4.41,4.41,0,0,1-3.72.82A4.25,4.25,0,0,1,8.36,24.5a4.3,4.3,0,0,1,.31-3A1.41,1.41,0,0,0,8,19.56a4.31,4.31,0,0,1,2.91-8,1.4,1.4,0,0,0,1.16-.23,1.38,1.38,0,0,0,.58-1,4.29,4.29,0,0,1,1.62-3,4.32,4.32,0,0,1,6.91,2.42q.06.3.09.6a1.42,1.42,0,0,0,1.74,1.25,4.31,4.31,0,0,1,5.2,3.36h0A4.27,4.27,0,0,1,27.5,18.26Z"/><path d="M17,12.75a5,5,0,1,0,5,5A5,5,0,0,0,17,12.75Zm0,7.08a2.13,2.13,0,1,1,2.13-2.12A2.12,2.12,0,0,1,17,19.83Z"/><use width="48" height="48" transform="translate(0 0) scale(0.71)" xlink:href="#a"/></svg>