<svg xmlns="http://www.w3.org/2000/svg" xmlns:xlink="http://www.w3.org/1999/xlink" viewBox="0 0 30 30"><defs><style>.a{fill:none;}</style><symbol id="a" viewBox="0 0 48 48"><rect class="a" width="48" height="48"/></symbol></defs><path d="M15,10a5,5,0,1,0,5,5A5,5,0,0,0,15,10Zm0,7.5A2.5,2.5,0,1,1,17.5,15,2.5,2.5,0,0,1,15,17.5Z"/><path d="M27,17a6.88,6.88,0,0,1-2-2,6.1,6.1,0,0,1,2-2,1.25,1.25,0,0,0,.36-1.65l-3-5.22a1.26,1.26,0,0,0-1.61-.51A7,7,0,0,1,20,6.36a6.2,6.2,0,0,1-.77-2.72A1.25,1.25,0,0,0,18,2.5H12a1.25,1.25,0,0,0-1.25,1.14A6.84,6.84,0,0,1,10,6.32a6.05,6.05,0,0,1-2.74-.69,1.25,1.25,0,0,0-1.61.51l-3,5.22A1.25,1.25,0,0,0,3,13a6.88,6.88,0,0,1,2,2,6.1,6.1,0,0,1-2,2,1.26,1.26,0,0,0-.36,1.65l3,5.22a1.26,1.26,0,0,0,1.61.51A7,7,0,0,1,10,23.64a6.2,6.2,0,0,1,.77,2.72A1.25,1.25,0,0,0,12,27.5h6a1.25,1.25,0,0,0,1.25-1.14A6.91,6.91,0,0,1,20,23.68a6.05,6.05,0,0,1,2.74.69,1.25,1.25,0,0,0,1.61-.51l3-5.22A1.25,1.25,0,0,0,27,17Zm-2.35,1.34L22.7,21.67c-1.2-.43-2.85-.81-3.95-.17s-1.6,2.25-1.83,3.5H13.08c-.23-1.25-.74-2.87-1.83-3.51s-2.75-.25-3.95.18L5.38,18.33c1-.82,2.12-2.07,2.12-3.33s-1.15-2.51-2.12-3.33L7.3,8.33c1.2.43,2.85.81,4,.18S12.85,6.25,13.08,5h3.84c.23,1.25.74,2.87,1.83,3.51s2.75.25,3.95-.18l1.92,3.34c-1,.82-2.12,2.07-2.12,3.33S23.65,17.51,24.62,18.33Z"/><use width="48" height="48" transform="translate(0 0) scale(0.62)" xlink:href="#a"/></svg>